<svg xmlns="http://www.w3.org/2000/svg" viewBox="0 0 128 128" role="img" aria-labelledby="title desc" shape-rendering="crispEdges">
  <title id="title">Wizard Claude pet</title>
  <desc id="desc">A tiny orange square pet with a small wizard hat and wand.</desc>
  <path d="M54 8h20v10h8v10h8v14H38V28h8V18h8V8Z" fill="#4a3f8f" stroke="#27224f" stroke-width="4"/>
  <rect x="57" y="20" width="14" height="6" fill="#ffd16b"/>
  <rect x="39" y="37" width="11" height="20" rx="3" fill="#f29a63" stroke="#9d6040" stroke-width="4"/>
  <rect x="78" y="37" width="11" height="20" rx="3" fill="#f29a63" stroke="#9d6040" stroke-width="4"/>
  <rect x="31" y="48" width="66" height="50" rx="4" fill="#f0955e" stroke="#985c3e" stroke-width="4"/>
  <rect x="22" y="61" width="15" height="18" rx="3" fill="#f29a63" stroke="#9d6040" stroke-width="4"/>
  <rect x="92" y="57" width="14" height="17" rx="3" fill="#f29a63" stroke="#9d6040" stroke-width="4"/>
  <rect x="105" y="42" width="5" height="44" fill="#6b493b" transform="rotate(20 107.5 64)"/>
  <rect x="101" y="36" width="13" height="13" fill="#ffd16b" transform="rotate(20 107.5 42.5)"/>
  <rect x="44" y="64" width="9" height="18" rx="2" fill="#202020"/>
  <rect x="76" y="64" width="9" height="18" rx="2" fill="#202020"/>
  <rect x="58" y="88" width="13" height="4" fill="#7d4735"/>
  <rect x="47" y="97" width="7" height="14" fill="#dc7d4e"/>
  <rect x="62" y="97" width="7" height="14" fill="#dc7d4e"/>
  <rect x="77" y="97" width="7" height="14" fill="#dc7d4e"/>
</svg>
