<svg width="1150" height="430" viewBox="0 0 1150 430" fill="none" xmlns="http://www.w3.org/2000/svg">
  <rect width="1150" height="430" rx="14" fill="#141414"/>
  <rect x="1" y="1" width="1148" height="428" rx="13" stroke="#2B2B2B"/>
  <g font-family="'SFMono-Regular', Consolas, 'Liberation Mono', Menlo, monospace">
    <text x="18" y="28" fill="#7EE787" font-size="16">(base) clashuser@edc63c40b945:~/hzh/item_bo/learn-likecc/ccsource/claude-code-main$</text>
    <text x="690" y="28" fill="#79C0FF" font-size="16">bun dist/cli.js</text>
  </g>
  <g transform="translate(14 36)">
    <rect x="0" y="0" width="76" height="76" rx="10" fill="#1F1F1F"/>
    <rect x="20" y="10" width="36" height="42" rx="8" fill="#D97B5A"/>
    <rect x="12" y="22" width="10" height="8" rx="2" fill="#D97B5A"/>
    <rect x="54" y="22" width="10" height="8" rx="2" fill="#D97B5A"/>
    <rect x="16" y="54" width="6" height="14" rx="2" fill="#D97B5A"/>
    <rect x="30" y="54" width="6" height="14" rx="2" fill="#D97B5A"/>
    <rect x="44" y="54" width="6" height="14" rx="2" fill="#D97B5A"/>
    <rect x="58" y="54" width="6" height="14" rx="2" fill="#D97B5A"/>
    <rect x="28" y="24" width="4" height="7" rx="2" fill="#141414"/>
    <rect x="44" y="24" width="4" height="7" rx="2" fill="#141414"/>
  </g>
  <g font-family="'SFMono-Regular', Consolas, 'Liberation Mono', Menlo, monospace">
    <text x="104" y="64" fill="#F0F6FC" font-size="35">Claude Code v1.0.0-likecode</text>
    <text x="104" y="102" fill="#C9D1D9" font-size="17">Z-ai/glm-5 · API Usage Billing</text>
    <text x="104" y="131" fill="#C9D1D9" font-size="17">~/hzh/item_bo/learn-likecc/ccsource/claude-code-main</text>
  </g>
  <line x1="8" y1="182.5" x2="1142" y2="182.5" stroke="#454545"/>
  <line x1="8" y1="274.5" x2="1142" y2="274.5" stroke="#454545"/>
  <g font-family="'SFMono-Regular', Consolas, 'Liberation Mono', Menlo, monospace">
    <text x="8" y="228" fill="#E6EDF3" font-size="34">❯</text>
    <rect x="30" y="199" width="14" height="32" fill="#E6EDF3"/>
    <text x="24" y="340" fill="#9DA7B3" font-size="17">? for shortcuts</text>
    <text x="1008" y="322" fill="#79C0FF" font-size="16">● In v2.5.1_plan.md</text>
    <text x="1022" y="348" fill="#D2A8FF" font-size="16">● high · /effort</text>
  </g>
</svg>
